<svg width="200" height="200" viewBox="0 0 200 200" fill="none" xmlns="http://www.w3.org/2000/svg">
<rect width="200" height="200" rx="5" fill="#CA4343"/>
<g clip-path="url(#clip0)">
<path d="M93.75 49.9999H106.25V56.2499H93.75V49.9999Z" fill="white"/>
<path d="M81.25 56.25C84.7018 56.25 87.5 53.4518 87.5 50C87.5 46.5482 84.7018 43.75 81.25 43.75C77.7982 43.75 75 46.5482 75 50C75 53.4518 77.7982 56.25 81.25 56.25Z" fill="white"/>
<path d="M118.75 56.25C122.202 56.25 125 53.4518 125 50C125 46.5482 122.202 43.75 118.75 43.75C115.298 43.75 112.5 46.5482 112.5 50C112.5 53.4518 115.298 56.25 118.75 56.25Z" fill="white"/>
<path d="M137.5 87.5H106.25V75L125 74.9375C129.962 74.9375 134.722 72.9707 138.236 69.4679C141.751 65.9651 143.733 61.212 143.75 56.25V43.75C143.735 38.7818 141.755 34.0212 138.242 30.5081C134.729 26.995 129.968 25.0148 125 25H75C70.0318 25.0148 65.2712 26.995 61.7581 30.5081C58.245 34.0212 56.2648 38.7818 56.25 43.75V56.25C56.2648 61.2182 58.245 65.9788 61.7581 69.4919C65.2712 73.005 70.0318 74.9852 75 75H93.75V87.5H62.5C57.5318 87.5148 52.7712 89.495 49.2581 93.0081C45.745 96.5212 43.7648 101.282 43.75 106.25V156.25C43.7648 161.218 45.745 165.979 49.2581 169.492C52.7712 173.005 57.5318 174.985 62.5 175H137.5C142.468 174.985 147.229 173.005 150.742 169.492C154.255 165.979 156.235 161.218 156.25 156.25V106.25C156.235 101.282 154.255 96.5212 150.742 93.0081C147.229 89.495 142.468 87.5148 137.5 87.5ZM75 62.5C73.3439 62.4951 71.7571 61.835 70.586 60.664C69.415 59.4929 68.7549 57.9061 68.75 56.25V43.75C68.7549 42.0939 69.415 40.5071 70.586 39.336C71.7571 38.165 73.3439 37.5049 75 37.5H124.938C126.6 37.5032 128.194 38.1607 129.376 39.3303C130.557 40.5 131.23 42.0877 131.25 43.75V56.25C131.23 57.9123 130.557 59.5 129.376 60.6697C128.194 61.8393 126.6 62.4968 124.938 62.5H75ZM102.719 150.45L100 153.125L97.2812 150.425C87.625 140.881 81.25 134.588 81.25 126.863C81.1778 125.445 81.3885 124.027 81.8696 122.692C82.3508 121.356 83.0928 120.13 84.0526 119.084C85.0124 118.038 86.1707 117.194 87.46 116.6C88.7493 116.006 90.1439 115.675 91.5625 115.625C93.1995 115.655 94.8085 116.055 96.2695 116.794C97.7305 117.533 99.0057 118.593 100 119.894C100.994 118.593 102.27 117.533 103.731 116.794C105.191 116.055 106.8 115.655 108.438 115.625C109.856 115.675 111.251 116.006 112.54 116.6C113.829 117.194 114.988 118.038 115.947 119.084C116.907 120.13 117.649 121.356 118.13 122.692C118.612 124.027 118.822 125.445 118.75 126.863C118.75 134.588 112.375 140.881 102.719 150.45Z" fill="white"/>
</g>
<defs>
<clipPath id="clip0">
<rect width="150" height="150" fill="white" transform="translate(25 25)"/>
</clipPath>
</defs>
</svg>
