<svg width="374" height="319" viewBox="0 0 374 319" fill="none" xmlns="http://www.w3.org/2000/svg">
<path d="M26.0291 88.1678C13.569 192.866 35.6936 300.623 165.486 315.748C232.392 323.542 370.198 295.547 373.859 214.871C378.904 103.694 247.049 144.396 191.724 107.103C153.798 81.5388 183.111 12.5918 113.183 1.05055C57.8049 -8.12233 31.1808 44.5966 26.0291 88.1678Z" fill="#CA4343"/>
<path opacity="0.9" d="M26.0291 88.1678C13.569 192.866 35.6936 300.623 165.486 315.748C232.392 323.542 370.198 295.547 373.859 214.871C378.904 103.694 247.049 144.396 191.724 107.103C153.798 81.5388 183.111 12.5918 113.183 1.05055C57.8049 -8.12233 31.1808 44.5966 26.0291 88.1678Z" fill="white"/>
<path d="M51.6227 151.471C52.0145 153.665 51.0741 155.624 50.2121 157.505C43.0807 172.395 35.7142 187.128 28.1126 201.782C27.7992 202.331 27.4073 202.958 26.6236 203.114C25.9183 203.193 25.0563 202.801 24.351 202.488C17.6898 199.274 10.9503 196.061 4.2891 192.77C3.19196 192.221 2.01646 191.673 1.38953 190.732C0.449126 189.322 1.38953 187.911 2.32993 186.892C10.7152 177.645 19.1788 168.32 27.5641 159.072C29.8367 156.486 49.35 137.835 51.6227 151.471Z" fill="#A82626" stroke="#191515" stroke-miterlimit="10"/>
<path d="M51.6227 143.007C52.0145 145.202 51.0741 147.161 50.2121 149.042C43.0807 163.931 35.7142 178.664 28.1126 193.319C27.7992 193.867 27.4073 194.494 26.6236 194.651C25.9183 194.729 25.0563 194.338 24.351 194.024C17.6898 190.811 10.9503 187.598 4.2891 184.307C3.19196 183.758 2.01646 183.209 1.38953 182.269C0.449126 180.858 1.38953 179.448 2.32993 178.429C10.7152 169.182 19.1788 159.856 27.5641 150.609C29.8367 148.023 49.35 129.371 51.6227 143.007Z" fill="#CA4343" stroke="#191515" stroke-miterlimit="10"/>
<path d="M37.6734 130.468C38.0652 130.155 38.3787 129.92 38.7705 129.685C40.7297 128.588 43.0023 127.961 44.648 126.55C45.6668 125.61 45.9803 124.277 46.999 123.337C48.9582 121.456 50.6039 119.027 53.2684 118.478C55.3059 118.086 55.6194 120.594 56.3247 122.083C57.1867 124.121 58.0488 126.158 58.9108 128.196C59.381 129.293 59.7728 130.39 59.6161 131.487C59.2243 133.917 56.0896 135.641 54.3655 137.208C52.2496 139.089 50.6039 142.302 48.0178 143.634C47.3909 143.321 47.2341 142.615 46.7639 142.223C46.137 141.675 45.1182 141.44 44.4129 141.048C42.8456 140.186 41.3566 139.167 39.7893 138.383C38.0652 137.6 35.7142 136.503 35.6358 134.308C35.5575 132.741 36.5762 131.409 37.6734 130.468Z" fill="#CA4343" stroke="#191515" stroke-miterlimit="10"/>
<path d="M44.9614 132.506C45.6667 132.193 46.4504 132.349 47.1557 132.584C48.9581 133.211 50.6822 134.23 52.0144 135.641" stroke="#191515" stroke-miterlimit="10"/>
<path d="M51.3091 129.998C51.8576 132.036 52.9548 133.917 54.4438 135.406" stroke="#191515" stroke-miterlimit="10"/>
<path d="M36.8113 136.032C37.5949 135.719 38.5354 135.876 39.319 136.189C43.0806 137.443 46.4504 140.108 48.4096 143.477" stroke="#191515" stroke-miterlimit="10"/>
<path d="M91.825 105.078L91.6682 124.669" stroke="#191515" stroke-width="6" stroke-miterlimit="10"/>
<path d="M96.4485 104.921C96.5269 107.194 94.5677 109.074 91.9816 109.153C89.4739 109.231 87.358 107.507 87.2796 105.234C87.2012 102.962 89.1604 101.081 91.7465 101.003C94.3326 100.924 96.3702 102.648 96.4485 104.921Z" fill="url(#paint0_linear)" stroke="#191515" stroke-miterlimit="10"/>
<path d="M31.404 159.856C39.6325 149.198 49.5851 139.794 61.4968 133.055C70.7441 127.804 81.2453 124.591 92.0599 124.983C127.482 126.237 151.932 160.091 151.932 160.091C151.932 160.091 178.89 189.636 180.928 236.577C182.965 283.519 141.118 304.521 141.118 304.521C141.118 304.521 90.5709 335.398 37.1247 300.995C37.1247 300.995 -1.90195 277.406 3.27026 231.17C5.46453 211.892 11.1853 192.77 20.9028 175.608C24.0375 170.279 27.564 164.95 31.404 159.856Z" fill="url(#paint1_linear)" stroke="#191515" stroke-width="3" stroke-miterlimit="10"/>
<path d="M42.2969 177.645C42.2969 177.645 49.1932 148.415 82.5775 143.399C82.5775 143.399 104.912 138.697 123.015 152.333C141.118 165.969 142.685 179.84 142.685 179.84C144.095 184.698 144.722 190.811 143.312 195.67C141.588 201.626 134.613 207.19 128.422 209.933C118.783 214.321 107.812 215.183 97.2321 215.34C82.1073 215.575 65.8854 216.123 52.4063 208.365C49.9769 206.955 48.1745 205.622 46.372 203.506C43.7859 200.372 41.9051 196.767 41.0431 192.849C40.1027 187.833 40.5729 182.582 42.2969 177.645Z" fill="#191515" stroke="white" stroke-width="0.5" stroke-miterlimit="10"/>
<path d="M48.7229 167.301C48.0176 163.069 55.4625 157.113 57.9702 154.919C64.9448 148.963 73.6436 145.28 82.8909 143.948C109.065 140.186 124.425 154.449 124.425 154.449C127.325 156.878 132.732 160.718 134.064 164.166C135.788 168.712 129.206 170.671 126.149 171.925C118.078 175.138 109.692 177.645 101.072 179.056C89.3953 180.937 77.0917 180.859 65.8069 177.097C62.7506 176.078 59.851 174.824 57.0298 173.335C54.9139 172.238 50.8388 170.514 49.3498 168.633C49.0364 168.241 48.8013 167.771 48.7229 167.301Z" fill="#232222"/>
<path d="M70.5873 190.419C76.6034 190.419 81.4803 185.542 81.4803 179.526C81.4803 173.51 76.6034 168.633 70.5873 168.633C64.5713 168.633 59.6943 173.51 59.6943 179.526C59.6943 185.542 64.5713 190.419 70.5873 190.419Z" fill="white" stroke="#191515" stroke-miterlimit="10"/>
<path d="M114.159 190.419C120.175 190.419 125.052 185.542 125.052 179.526C125.052 173.51 120.175 168.633 114.159 168.633C108.143 168.633 103.266 173.51 103.266 179.526C103.266 185.542 108.143 190.419 114.159 190.419Z" fill="white" stroke="#191515" stroke-miterlimit="10"/>
<path d="M72.5464 186.971C76.7014 186.971 80.0696 183.638 80.0696 179.526C80.0696 175.415 76.7014 172.082 72.5464 172.082C68.3915 172.082 65.0232 175.415 65.0232 179.526C65.0232 183.638 68.3915 186.971 72.5464 186.971Z" fill="#191515" stroke="#191515" stroke-miterlimit="10"/>
<path d="M111.73 186.971C115.885 186.971 119.253 183.638 119.253 179.526C119.253 175.415 115.885 172.082 111.73 172.082C107.575 172.082 104.207 175.415 104.207 179.526C104.207 183.638 107.575 186.971 111.73 186.971Z" fill="#191515" stroke="#191515" stroke-miterlimit="10"/>
<path d="M72.5463 176.235C73.4985 176.235 74.2704 175.463 74.2704 174.511C74.2704 173.559 73.4985 172.787 72.5463 172.787C71.5942 172.787 70.8223 173.559 70.8223 174.511C70.8223 175.463 71.5942 176.235 72.5463 176.235Z" fill="white"/>
<path d="M110.633 176.235C111.585 176.235 112.357 175.463 112.357 174.511C112.357 173.559 111.585 172.787 110.633 172.787C109.681 172.787 108.909 173.559 108.909 174.511C108.909 175.463 109.681 176.235 110.633 176.235Z" fill="white"/>
<path d="M72.8598 186.579C73.2926 186.579 73.6435 186.228 73.6435 185.796C73.6435 185.363 73.2926 185.012 72.8598 185.012C72.427 185.012 72.0762 185.363 72.0762 185.796C72.0762 186.228 72.427 186.579 72.8598 186.579Z" fill="white"/>
<path d="M110.633 186.579C111.066 186.579 111.416 186.228 111.416 185.796C111.416 185.363 111.066 185.012 110.633 185.012C110.2 185.012 109.849 185.363 109.849 185.796C109.849 186.228 110.2 186.579 110.633 186.579Z" fill="white"/>
<path d="M40.6514 147.631C40.7298 147.709 43.3159 146.612 43.4726 146.534C46.1371 145.593 48.8016 144.731 51.5444 143.948C60.9484 141.283 70.6659 139.559 80.3834 138.775C94.0192 137.678 107.733 138.462 121.134 141.283C124.817 142.067 128.422 143.007 132.027 144.026C133.908 144.575 135.71 145.201 137.591 145.828C139.159 146.377 140.883 146.69 142.293 147.709C141.823 146.69 140.412 145.672 139.55 144.888C136.181 141.832 132.732 138.775 129.128 135.954C127.012 134.308 124.504 132.036 121.918 131.095C121.604 131.017 121.291 130.939 120.977 130.86C117.921 130.155 114.865 129.842 111.73 129.371C106.871 128.666 101.934 128.118 96.9972 127.804C83.9883 127.099 70.4308 127.882 58.1272 132.349C58.1272 132.428 39.2408 145.828 40.6514 147.631Z" fill="#CA4343" stroke="#191515" stroke-miterlimit="10"/>
<path d="M100.915 191.83C100.759 192.692 99.5049 193.789 98.7996 194.259C97.8592 194.964 96.8404 195.513 95.7433 195.826C93.549 196.453 91.1196 196.375 88.9254 195.748C86.8094 195.2 84.7719 194.102 83.9099 192.222C83.7531 191.908 84.3017 191.516 84.7719 191.595C85.3989 191.673 85.7907 191.987 86.1825 192.378C88.1417 193.946 90.8845 194.808 93.4706 194.573C95.1163 194.416 96.762 193.867 98.0943 193.005C98.7212 192.613 99.1914 192.065 99.74 191.595C100.053 191.281 101.072 190.889 100.915 191.83Z" fill="white" stroke="white" stroke-width="0.75" stroke-miterlimit="10"/>
<path d="M67.3083 166.323C68.4769 166.323 69.4242 165.376 69.4242 164.207C69.4242 163.038 68.4769 162.091 67.3083 162.091C66.1397 162.091 65.1924 163.038 65.1924 164.207C65.1924 165.376 66.1397 166.323 67.3083 166.323Z" fill="white"/>
<path d="M98.8117 166.323C99.9803 166.323 100.928 165.376 100.928 164.207C100.928 163.038 99.9803 162.091 98.8117 162.091C97.6431 162.091 96.6958 163.038 96.6958 164.207C96.6958 165.376 97.6431 166.323 98.8117 166.323Z" fill="white"/>
<path d="M98.7334 163.972C98.7334 163.972 101.32 163.502 102.887 164.52C103.044 164.599 103.435 164.991 103.592 164.677C103.827 164.285 102.965 163.658 102.73 163.423C102.338 163.11 101.79 162.875 101.32 162.64C100.536 162.326 99.6738 162.091 98.8118 162.169L98.7334 163.972Z" fill="white"/>
<path d="M235.939 171.229C226.79 171.229 219.372 170.837 219.372 170.354C219.372 169.872 226.79 169.48 235.939 169.48C245.088 169.48 252.506 169.872 252.506 170.354C252.506 170.837 245.088 171.229 235.939 171.229Z" fill="#E6E6E6"/>
<path d="M348.476 149.685L203.649 149.685C189.553 149.685 178.125 139.871 178.125 127.764V57.4646C178.125 45.3578 189.553 35.5433 203.649 35.5433L348.476 35.5433C362.573 35.5433 374 45.3578 374 57.4646V127.764C374 139.871 362.573 149.685 348.476 149.685Z" fill="#263238"/>
<path d="M228.907 170.354H242.613L270.466 113.677H249.489L228.907 170.354Z" fill="#263238"/>
<path d="M174 86.8347H174.917V92.6142H174V86.8347Z" fill="#CA4343"/>
<path opacity="0.2" d="M174 86.8347H174.917V92.6142H174V86.8347Z" fill="black"/>
<path d="M174 62.197H174.917V82.8899H174V62.197Z" fill="#CA4343"/>
<path opacity="0.2" d="M174 62.197H174.917V82.8899H174V62.197Z" fill="black"/>
<path d="M290.48 32H302.912V32.7874H290.48V32Z" fill="#CA4343"/>
<path opacity="0.2" d="M290.48 32H302.912V32.7874H290.48V32Z" fill="black"/>
<path d="M191.19 113.677L228.935 170.354L256.787 113.677H191.19Z" fill="#CA4343"/>
<path opacity="0.2" d="M191.181 113.677L228.926 170.354L256.778 113.677H191.181Z" fill="black"/>
<path d="M336.952 149.685L203.649 149.685C189.553 149.685 178.126 139.871 178.126 127.764V57.4646C178.126 45.3578 189.553 35.5433 203.649 35.5433L336.952 35.5433C351.049 35.5433 362.476 45.3578 362.476 57.4646V127.764C362.476 139.871 351.049 149.685 336.952 149.685Z" fill="#CA4343"/>
<path opacity="0.2" d="M336.952 149.685L203.649 149.685C189.553 149.685 178.126 139.871 178.126 127.764V57.4646C178.126 45.3578 189.553 35.5433 203.649 35.5433L336.952 35.5433C351.049 35.5433 362.476 45.3578 362.476 57.4646V127.764C362.476 139.871 351.049 149.685 336.952 149.685Z" fill="black"/>
<path opacity="0.7" d="M290.837 149.685H315.224L289.425 35.5432H265.029L290.837 149.685Z" fill="#CA4343"/>
<path opacity="0.7" d="M268.807 149.685H282.678L256.87 35.5432H243.008L268.807 149.685Z" fill="#CA4343"/>
<path d="M211.195 72.3701H278.965C280.796 72.3134 282.531 71.6486 283.804 70.5156C285.076 69.3825 285.788 67.8696 285.788 66.2953C285.788 64.721 285.076 63.2081 283.804 62.075C282.531 60.942 280.796 60.2771 278.965 60.2205H211.195C210.244 60.1911 209.297 60.3265 208.409 60.6185C207.521 60.9106 206.711 61.3533 206.026 61.9203C205.342 62.4873 204.797 63.1669 204.426 63.9186C204.054 64.6703 203.862 65.4786 203.862 66.2953C203.862 67.112 204.054 67.9203 204.426 68.672C204.797 69.4236 205.342 70.1033 206.026 70.6703C206.711 71.2373 207.521 71.68 208.409 71.9721C209.297 72.2641 210.244 72.3995 211.195 72.3701Z" fill="white"/>
<path d="M302.187 72.3701H332.882C334.713 72.3134 336.448 71.6486 337.721 70.5156C338.993 69.3825 339.705 67.8696 339.705 66.2953C339.705 64.721 338.993 63.2081 337.721 62.075C336.448 60.942 334.713 60.2771 332.882 60.2205H302.187C301.237 60.1911 300.289 60.3265 299.401 60.6185C298.513 60.9106 297.703 61.3533 297.019 61.9203C296.334 62.4873 295.79 63.1669 295.418 63.9186C295.046 64.6703 294.855 65.4786 294.855 66.2953C294.855 67.112 295.046 67.9203 295.418 68.672C295.79 69.4236 296.334 70.1033 297.019 70.6703C297.703 71.2373 298.513 71.68 299.401 71.9721C300.289 72.2641 301.237 72.3995 302.187 72.3701Z" fill="white"/>
<path d="M211.195 97.9763H325.685C327.517 97.9196 329.251 97.2548 330.524 96.1218C331.797 94.9887 332.508 93.4758 332.508 91.9015C332.508 90.3272 331.797 88.8143 330.524 87.6812C329.251 86.5481 327.517 85.8833 325.685 85.8267H211.195C210.244 85.7973 209.297 85.9327 208.409 86.2247C207.521 86.5168 206.711 86.9595 206.026 87.5265C205.342 88.0935 204.797 88.7731 204.426 89.5248C204.054 90.2765 203.862 91.0848 203.862 91.9015C203.862 92.7182 204.054 93.5265 204.426 94.2782C204.797 95.0298 205.342 95.7095 206.026 96.2765C206.711 96.8435 207.521 97.2862 208.409 97.5782C209.297 97.8703 210.244 98.0057 211.195 97.9763Z" fill="white"/>
<path d="M211.195 123.575H264.232C266.064 123.518 267.798 122.853 269.071 121.72C270.344 120.587 271.055 119.074 271.055 117.5C271.055 115.926 270.344 114.413 269.071 113.28C267.798 112.147 266.064 111.482 264.232 111.425H211.195C210.244 111.396 209.297 111.531 208.409 111.823C207.521 112.115 206.711 112.558 206.026 113.125C205.342 113.692 204.797 114.372 204.426 115.123C204.054 115.875 203.862 116.683 203.862 117.5C203.862 118.317 204.054 119.125 204.426 119.877C204.797 120.628 205.342 121.308 206.026 121.875C206.711 122.442 207.521 122.885 208.409 123.177C209.297 123.469 210.244 123.604 211.195 123.575Z" fill="white"/>
<path opacity="0.1" d="M329.37 35.5196C329.37 35.5196 339.51 82.6062 339.51 102.496C339.51 122.898 331.13 149.661 331.13 149.661H357.91L359.68 123.827C361.347 99.6659 358.562 75.4305 351.428 52.0157L346.404 35.4802L329.37 35.5196Z" fill="black"/>
<path d="M65.568 31.0001C69.9736 30.9868 74.2199 32.585 77.448 35.4713C80.6761 38.3576 82.645 42.3165 82.9565 46.5473C83.2679 50.7781 81.8986 54.9648 79.1256 58.2605C76.3526 61.5563 72.3828 63.715 68.0194 64.3001C67.9322 68.5251 69.4713 72.6319 72.3404 75.8301C72.3404 75.8301 48.18 70.0401 48.18 47.7401C48.18 43.3003 50.012 39.0425 53.2729 35.9031C56.5337 32.7638 60.9565 31.0001 65.568 31.0001Z" fill="#CA4343"/>
<path d="M26.4401 31.0001C30.8456 30.9868 35.0919 32.585 38.3201 35.4713C41.5482 38.3576 43.5171 42.3166 43.8286 46.5473C44.14 50.7781 42.7707 54.9648 39.9977 58.2606C37.2247 61.5563 33.2549 63.7151 28.8915 64.3001C28.7899 68.5186 30.3102 72.6246 33.1605 75.8301C33.1605 75.8301 9.00018 70.0401 9.00018 47.7401C8.9988 45.5372 9.44933 43.3557 10.3259 41.3208C11.2025 39.286 12.4879 37.4378 14.1083 35.8825C15.7287 34.3271 17.6522 33.0951 19.7684 32.2573C21.8847 31.4194 24.1519 30.9922 26.4401 31.0001Z" fill="#CA4343"/>
<defs>
<linearGradient id="paint0_linear" x1="91.419" y1="101.027" x2="92.2437" y2="109.126" gradientUnits="userSpaceOnUse">
<stop stop-color="#E71D24"/>
<stop offset="0.4913" stop-color="#D41E24"/>
<stop offset="1" stop-color="#BB1F25"/>
</linearGradient>
<linearGradient id="paint1_linear" x1="81.7568" y1="142.608" x2="99.9215" y2="315.127" gradientUnits="userSpaceOnUse">
<stop stop-color="white"/>
<stop offset="0.4754" stop-color="#F7F7F7"/>
<stop offset="1" stop-color="#E9E9E9"/>
</linearGradient>
</defs>
</svg>
