<svg width="50" height="50" viewBox="0 0 50 50" fill="none" xmlns="http://www.w3.org/2000/svg">
<g clip-path="url(#clip0)">
<rect width="50" height="50" fill="white"/>
<path d="M42.6023 42.6023H35.1939V31.0002C35.1939 28.2336 35.1445 24.672 31.3408 24.672C27.4822 24.672 26.8918 27.6865 26.8918 30.7988V42.6015H19.4836V18.7429H26.5955V22.0035H26.6951C27.4068 20.7865 28.4353 19.7853 29.671 19.1066C30.9068 18.4279 32.3034 18.0971 33.7123 18.1494C41.2211 18.1494 42.6054 23.0885 42.6054 29.5138L42.6023 42.6023ZM11.1242 15.4818C8.74978 15.4822 6.82459 13.5576 6.8242 11.1832C6.8238 8.80877 8.74822 6.88357 11.1226 6.88318C13.497 6.88259 15.4222 8.8072 15.4226 11.1816C15.4228 12.3219 14.9701 13.4155 14.164 14.2219C13.3579 15.0284 12.2644 15.4816 11.1242 15.4818ZM14.8285 42.6025H7.41228V18.7429H14.8283V42.6023L14.8285 42.6025ZM46.2957 0.00290662H3.68963C1.67595 -0.0197496 0.0245865 1.59334 -2.28882e-05 3.60701V46.3908C0.0238052 48.4054 1.67498 50.0201 3.68943 49.999H46.2957C48.3144 50.024 49.972 48.4094 50 46.3908V3.60369C49.9713 1.58611 48.3135 -0.0267809 46.2957 -0.000413693" fill="#0A66C2"/>
</g>
<defs>
<clipPath id="clip0">
<rect width="50" height="50" fill="white"/>
</clipPath>
</defs>
</svg>
