<svg width="120" height="120" viewBox="0 0 120 120" fill="none" xmlns="http://www.w3.org/2000/svg">
<path d="M60 0C26.916 0 0 26.916 0 60V84.858C0 91.002 5.382 96 12 96H18C19.5913 96 21.1174 95.3679 22.2426 94.2426C23.3679 93.1174 24 91.5913 24 90V59.142C24 57.5507 23.3679 56.0246 22.2426 54.8994C21.1174 53.7741 19.5913 53.142 18 53.142H12.552C15.888 29.922 35.868 12 60 12C84.132 12 104.112 29.922 107.448 53.142H102C100.409 53.142 98.8826 53.7741 97.7574 54.8994C96.6321 56.0246 96 57.5507 96 59.142V96C96 102.618 90.618 108 84 108H72V102H48V120H84C97.236 120 108 109.236 108 96C114.618 96 120 91.002 120 84.858V60C120 26.916 93.084 0 60 0Z" fill="#CA4343"/>
</svg>
