<svg width="120" height="120" viewBox="0 0 120 120" fill="none" xmlns="http://www.w3.org/2000/svg">
<path d="M60.6 84.15C60.6 84.81 61.11 85.35 61.725 85.35H89.475C90.09 85.35 90.6 84.81 90.6 84.15V76.95C90.6 76.29 90.09 75.75 89.475 75.75H61.725C61.11 75.75 60.6 76.29 60.6 76.95V84.15ZM31.365 85.065L60.165 60.915C60.735 60.435 60.735 59.55 60.165 59.07L31.365 34.935C31.1911 34.7872 30.9785 34.6923 30.7523 34.6617C30.5262 34.6311 30.296 34.6661 30.0891 34.7624C29.8822 34.8587 29.7073 35.0124 29.5852 35.2052C29.463 35.398 29.3987 35.6218 29.4 35.85V45.255C29.4 45.615 29.55 45.945 29.835 46.17L46.305 60L29.835 73.83C29.7009 73.9422 29.5927 74.0821 29.5176 74.24C29.4425 74.3979 29.4024 74.5702 29.4 74.745V84.15C29.4 85.17 30.585 85.725 31.365 85.065ZM115.2 0H4.8C2.145 0 0 2.145 0 4.8V115.2C0 117.855 2.145 120 4.8 120H115.2C117.855 120 120 117.855 120 115.2V4.8C120 2.145 117.855 0 115.2 0ZM109.2 109.2H10.8V10.8H109.2V109.2Z" fill="#CA4343"/>
</svg>
