<svg width="72" height="50" viewBox="0 0 72 50" fill="none" xmlns="http://www.w3.org/2000/svg">
<g clip-path="url(#clip0)">
<path d="M69.545 7.79861C69.1371 6.29127 68.3415 4.91707 67.2373 3.81286C66.1332 2.70864 64.759 1.91295 63.2517 1.505C57.7333 0 35.5239 0 35.5239 0C35.5239 0 13.3133 0.0455554 7.795 1.55056C6.28764 1.95853 4.91346 2.75427 3.80929 3.85853C2.70513 4.96279 1.90951 6.33705 1.50167 7.84444C-0.167497 17.6494 -0.814997 32.59 1.5475 42.0028C1.95538 43.5101 2.75102 44.8843 3.85518 45.9885C4.95935 47.0927 6.33351 47.8884 7.84084 48.2964C13.3592 49.8014 35.5692 49.8014 35.5692 49.8014C35.5692 49.8014 57.7789 49.8014 63.297 48.2964C64.8043 47.8885 66.1786 47.0928 67.2828 45.9886C68.387 44.8844 69.1827 43.5102 69.5906 42.0028C71.3511 32.1839 71.8936 17.2528 69.545 7.79889V7.79861Z" fill="#FF0000"/>
<path d="M28.4544 35.5723L46.8792 24.9007L28.4547 14.229L28.4544 35.5723Z" fill="white"/>
</g>
<defs>
<clipPath id="clip0">
<rect width="71.12" height="50" fill="white"/>
</clipPath>
</defs>
</svg>
